<svg xmlns="http://www.w3.org/2000/svg" version="1.1" xmlns:xlink="http://www.w3.org/1999/xlink" width="512" height="512" x="0" y="0" viewBox="0 0 512 512" style="enable-background:new 0 0 512 512" xml:space="preserve" class=""><g><pattern id="a" width="24.91" height="24.92" x="1232.5" y="1908.115" overflow="visible" patternUnits="userSpaceOnUse" viewBox="0 -24.92 24.91 24.92"><path fill="#fed480" d="M0-24.92h24.91V0H0z" opacity="1" data-original="#fed480"></path></pattern><pattern id="b" width="24.91" height="24.92" x="1232.5" y="1908.115" overflow="visible" patternUnits="userSpaceOnUse" viewBox="0 -24.92 24.91 24.92"><path fill="#f59977" d="M0-24.92h24.91V0H0z" opacity="1" data-original="#f59977"></path></pattern><pattern id="c" width="24.91" height="24.92" x="1232.5" y="1908.115" overflow="visible" patternUnits="userSpaceOnUse" viewBox="0 -24.92 24.91 24.92"><path fill="#92e6fd" d="M0-24.92h24.91V0H0z" opacity="1" data-original="#92e6fd"></path></pattern><pattern id="d" width="24.91" height="24.92" x="1232.5" y="1908.115" overflow="visible" patternUnits="userSpaceOnUse" viewBox="0 -24.92 24.91 24.92"><path fill="#45a7cd" d="M0-24.92h24.91V0H0z" opacity="1" data-original="#45a7cd"></path></pattern><pattern id="e" width="24.91" height="24.92" x="1232.5" y="1908.115" overflow="visible" patternUnits="userSpaceOnUse" viewBox="0 -24.92 24.91 24.92"><path fill="#021938" d="M0-24.92h24.91V0H0z" opacity="1" data-original="#021938"></path></pattern><pattern xlink:href="#a" id="f" patternTransform="translate(70153.773 75988.305) scale(7.731)"></pattern><pattern xlink:href="#b" id="g" patternTransform="translate(70153.773 75988.305) scale(7.731)"></pattern><pattern xlink:href="#c" id="h" patternTransform="translate(70153.773 75988.305) scale(7.731)"></pattern><pattern xlink:href="#d" id="i" patternTransform="translate(70153.773 75988.305) scale(7.731)"></pattern><pattern xlink:href="#b" id="j" patternTransform="translate(70153.773 75988.305) scale(7.731)"></pattern><pattern xlink:href="#e" id="k" patternTransform="matrix(-8.233 6.913 4.601 6.42 -45665.031 133449.422)"></pattern><pattern xlink:href="#e" id="l" patternTransform="matrix(-8.233 6.913 4.601 6.42 -45665.031 133449.422)"></pattern><pattern xlink:href="#e" id="m" patternTransform="matrix(-8.233 6.913 4.601 6.42 -45665.031 133449.422)"></pattern><pattern xlink:href="#e" id="n" patternTransform="matrix(-8.233 6.913 4.601 6.42 -45665.031 133449.422)"></pattern><pattern xlink:href="#e" id="o" patternTransform="matrix(-8.233 6.913 4.601 6.42 -45665.031 133449.422)"></pattern><pattern xlink:href="#e" id="p" patternTransform="matrix(-8.233 6.913 4.601 6.42 -45665.031 133449.422)"></pattern><pattern xlink:href="#e" id="q" patternTransform="matrix(-8.233 6.913 4.601 6.42 -45665.031 133449.422)"></pattern><pattern xlink:href="#e" id="r" patternTransform="matrix(-8.233 6.913 4.601 6.42 -45665.031 133449.422)"></pattern><pattern xlink:href="#e" id="s" patternTransform="matrix(-8.233 6.913 4.601 6.42 -45665.031 133449.422)"></pattern><pattern xlink:href="#e" id="t" patternTransform="matrix(-8.233 6.913 4.601 6.42 -45665.031 133449.422)"></pattern><path fill="url(#f)" d="M335.55 54.52v208.987c-5.709-1.34-11.56-1.973-17.621-1.973-45.181 0-81.762 36.581-81.762 81.69 0 41.939 31.577 137.375 72.247 150.697a38.091 38.091 0 0 1-10.996 1.621H54.388c-21.004 0-38.061-17.058-38.061-38.062V54.52c0-21.004 17.057-38.061 38.061-38.061h243.03c21.075 0 38.132 17.056 38.132 38.061z" opacity="1" data-original="url(#f)"></path><path fill="#ffffff" d="M300.337 62.556v80.704c0 5.991-4.863 10.855-10.854 10.855H62.423c-5.991 0-10.854-4.864-10.854-10.855V62.556c0-5.992 4.863-10.855 10.854-10.855h227.06c5.991 0 10.854 4.863 10.854 10.855z" opacity="1" data-original="#ffffff"></path><path fill="url(#g)" d="M154.687 205.801v77.7c0 7.019-5.69 12.709-12.709 12.709h-77.7c-7.019 0-12.709-5.69-12.709-12.709v-77.7c0-7.019 5.69-12.709 12.709-12.709h77.7c7.019 0 12.709 5.69 12.709 12.709z" opacity="1" data-original="url(#g)" class=""></path><path fill="url(#h)" d="M299.603 205.779v57.868c-19.947 4.511-37.145 16.352-48.493 32.564h-41.938c-6.978 0-12.687-5.71-12.687-12.688v-77.745c0-6.978 5.709-12.687 12.687-12.687h77.744c6.978.001 12.687 5.71 12.687 12.688z" opacity="1" data-original="url(#h)"></path><path fill="#ffffff" d="M154.687 347.897v77.7c0 7.019-5.69 12.709-12.709 12.709h-77.7c-7.019 0-12.709-5.69-12.709-12.709v-77.7c0-7.019 5.69-12.709 12.709-12.709h77.7c7.019 0 12.709 5.69 12.709 12.709z" opacity="1" data-original="#ffffff"></path><path fill="url(#i)" d="M261.048 438.308h-51.876c-6.978 0-12.687-5.709-12.687-12.688v-77.744c0-6.978 5.709-12.688 12.687-12.688h27.419a74.704 74.704 0 0 0-.423 8.034c-.001 23.05 9.515 62.24 24.88 95.086z" opacity="1" data-original="url(#i)"></path><path fill="url(#j)" d="M495.674 343.259c0 45.18-36.652 152.249-81.762 152.249-17.903 0-34.538-5.779-48-15.648-13.463 9.869-30.097 15.648-48 15.648-45.181 0-81.762-107.069-81.762-152.249 0-45.11 36.581-81.692 81.762-81.692 17.903 0 34.537 5.78 48 15.647 13.462-9.867 30.097-15.647 48-15.647 45.11 0 81.762 36.582 81.762 81.692z" opacity="1" data-original="url(#j)"></path><path fill="url(#k)" d="m54.387 501.34 263.525-.034c17.271 0 33.78-4.96 48-14.379 14.221 9.419 30.729 14.379 48 14.379 50.586 0 87.56-110.909 87.56-158.048 0-48.242-39.28-87.488-87.56-87.488-14.995 0-29.41 3.751-42.258 10.901 1.954-32.708 19.725-53.345 54.32-54.412 3.201-.098 5.715-2.771 5.617-5.972s-2.88-5.783-5.972-5.617c-41.406 1.272-63.632 27.64-65.602 65.923-5.921-3.281-12.181-5.808-18.67-7.609V54.519c0-24.183-19.706-43.859-43.931-43.859H54.387c-24.183 0-43.859 19.676-43.859 43.859v402.962c0 24.183 19.676 43.859 43.859 43.859zm197.481-68.831H209.17c-3.798 0-6.886-3.092-6.886-6.89v-77.741c0-3.798 3.088-6.89 6.886-6.89h21.227c-.702 27.178 10.792 66.544 21.471 91.521zm-3.713-142.095H209.17c-3.798 0-6.886-3.092-6.886-6.89V205.78c0-3.798 3.088-6.89 6.886-6.89h77.744c3.798 0 6.89 3.092 6.89 6.89v53.361c-17.716 5.022-34.24 16.137-45.649 31.273zm241.72 52.844c0 45.75-36.724 146.451-75.963 146.451-16.195 0-31.609-5.025-44.573-14.527a5.8 5.8 0 0 0-6.856 0c-12.964 9.502-28.377 14.527-44.573 14.527-40.657 0-75.947-106.261-75.947-146.485 0-42.334 34.663-75.857 75.947-75.857 15.055 0 31.098 4.649 44.573 14.527 1.818 1.335 4.697 1.586 6.856 0 12.964-9.502 28.377-14.527 44.573-14.527 41.885 0 75.963 34.044 75.963 75.891zM22.125 54.519c0-17.788 14.474-32.262 32.262-32.262h243.03c17.83 0 32.334 14.474 32.334 32.262v202.009c-9.092-1.27-16.787-.882-24.349.209V205.78c0-10.193-8.294-18.487-18.487-18.487H209.17c-10.193 0-18.483 8.294-18.483 18.487v77.744c0 10.193 8.29 18.487 18.483 18.487h31.562c-4.375 8.139-7.453 16.675-9.171 27.381H209.17c-10.193 0-18.483 8.294-18.483 18.487v77.741c0 10.193 8.29 18.487 18.483 18.487h47.983c9.098 18.713 20.172 35.222 32.707 45.637H54.387c-17.788 0-32.262-14.474-32.262-32.262z" opacity="1" data-original="url(#k)"></path><path fill="url(#l)" d="M62.424 159.912h227.057c9.185 0 16.656-7.471 16.656-16.652V62.556c0-9.185-7.471-16.656-16.656-16.656H62.424c-9.185 0-16.656 7.471-16.656 16.656v80.704c0 9.181 7.471 16.652 16.656 16.652zm-5.058-97.356a5.064 5.064 0 0 1 5.059-5.059h227.057a5.064 5.064 0 0 1 5.059 5.059v80.704a5.063 5.063 0 0 1-5.059 5.055H62.424a5.063 5.063 0 0 1-5.059-5.055V62.556z" opacity="1" data-original="url(#l)"></path><path fill="url(#m)" d="M64.278 302.011h77.699c10.208 0 18.509-8.301 18.509-18.509v-77.699c0-10.208-8.301-18.509-18.509-18.509H64.278c-10.208 0-18.509 8.301-18.509 18.509v77.699c-.001 10.207 8.301 18.509 18.509 18.509zm-6.912-96.209a6.918 6.918 0 0 1 6.912-6.912h77.699a6.918 6.918 0 0 1 6.912 6.912v77.699a6.918 6.918 0 0 1-6.912 6.912H64.278a6.918 6.918 0 0 1-6.912-6.912z" opacity="1" data-original="url(#m)" class=""></path><path fill="url(#n)" d="M64.278 444.106h77.699c10.208 0 18.509-8.301 18.509-18.509v-77.699c0-10.208-8.301-18.509-18.509-18.509H64.278c-10.208 0-18.509 8.301-18.509 18.509v77.699c-.001 10.207 8.301 18.509 18.509 18.509zm-6.912-96.209a6.918 6.918 0 0 1 6.912-6.912h77.699a6.918 6.918 0 0 1 6.912 6.912v77.699a6.918 6.918 0 0 1-6.912 6.912H64.278a6.918 6.918 0 0 1-6.912-6.912z" opacity="1" data-original="url(#n)"></path><path fill="url(#o)" d="M76.966 250.451h20.363v20.363a5.8 5.8 0 0 0 11.598 0v-20.363h20.363a5.8 5.8 0 0 0 5.799-5.799 5.8 5.8 0 0 0-5.799-5.799h-20.363V218.49a5.8 5.8 0 0 0-11.598 0v20.363H76.966a5.8 5.8 0 0 0-5.799 5.799 5.801 5.801 0 0 0 5.799 5.799z" opacity="1" data-original="url(#o)" class=""></path><path fill="url(#p)" d="M245.717 230.231h4.64a5.8 5.8 0 0 0 5.799-5.799 5.8 5.8 0 0 0-5.799-5.799h-4.64a5.8 5.8 0 0 0 0 11.598z" opacity="1" data-original="url(#p)"></path><path fill="url(#q)" d="M256.155 264.871a5.8 5.8 0 0 0-5.799-5.799h-4.64a5.8 5.8 0 0 0 0 11.598h4.64a5.8 5.8 0 0 0 5.799-5.799z" opacity="1" data-original="url(#q)"></path><path fill="url(#r)" d="M277.529 244.478a5.8 5.8 0 0 0-5.799-5.799h-47.389a5.8 5.8 0 0 0 0 11.598h47.389a5.8 5.8 0 0 0 5.799-5.799z" opacity="1" data-original="url(#r)"></path><path fill="url(#s)" d="M80.53 409.348c1.133 1.133 2.616 1.699 4.1 1.699s2.967-.566 4.1-1.699l14.4-14.4 14.4 14.4c1.133 1.133 2.616 1.699 4.1 1.699s2.967-.566 4.1-1.699a5.797 5.797 0 0 0 0-8.2l-14.4-14.4 14.4-14.4a5.797 5.797 0 0 0 0-8.2 5.797 5.797 0 0 0-8.2 0l-14.4 14.4-14.4-14.4a5.797 5.797 0 0 0-8.2 0 5.797 5.797 0 0 0 0 8.2l14.4 14.4-14.4 14.4a5.795 5.795 0 0 0 0 8.2z" opacity="1" data-original="url(#s)"></path><path fill="url(#t)" d="M313.91 291.207c-25.841 1.967-46.547 22.938-48.163 48.778a5.8 5.8 0 0 0 11.574.725c1.257-20.099 17.365-36.407 37.472-37.936a5.806 5.806 0 0 0 5.342-6.225c-.245-3.194-2.993-5.618-6.225-5.342z" opacity="1" data-original="url(#t)"></path></g></svg>