<svg xmlns="http://www.w3.org/2000/svg" version="1.1" xmlns:xlink="http://www.w3.org/1999/xlink" width="512" height="512" x="0" y="0" viewBox="0 0 512 512" style="enable-background:new 0 0 512 512" xml:space="preserve" class=""><g><path d="M501.9 97.517c.072-7.616-6.251-18.713-16.164-24.696a33.51 33.51 0 0 0-17.415-4.861h-31.368v20.876c0 11.763-9.533 21.296-21.296 21.296-11.753 0-21.286-9.533-21.286-21.296V67.959h-62.416v20.876c0 11.763-9.532 21.296-21.296 21.296-11.753 0-21.296-9.533-21.296-21.296V67.959h-62.406v20.876c0 11.763-9.533 21.296-21.296 21.296s-21.296-9.533-21.296-21.296V67.959H121.96v20.876c0 11.763-9.532 21.296-21.296 21.296s-21.296-9.533-21.296-21.296V67.959H43.569C25.024 67.959 10 82.993 10 97.527v348.794c0 22.546 15.024 37.58 33.569 37.58h424.862c18.545 0 33.579-15.044 33.569-37.59l-.1-348.794z" style="" fill="#ffffff" data-original="#ffffff" class=""></path><path d="M302.077 162.464H501.89V97.517c0-7.717-6.237-18.711-16.154-24.696a33.487 33.487 0 0 0-17.415-4.861h-31.368v20.876c0 11.763-9.533 21.296-21.296 21.296-11.753 0-21.285-9.533-21.285-21.296V67.959h-62.417v20.876c0 11.763-9.533 21.296-21.296 21.296-11.753 0-21.296-9.533-21.296-21.296V67.959h-62.406v20.876c0 11.763-9.533 21.296-21.296 21.296s-21.296-9.533-21.296-21.296V67.959H121.96v20.876c0 11.763-9.533 21.296-21.296 21.296s-21.296-9.533-21.296-21.296V67.959H43.569C25.024 67.959 10 82.967 10 97.527v64.937h292.077z" style="" fill="#ff7e96" data-original="#ff7e96" class=""></path><path d="M100.67 110.128h-.011c-11.757 0-21.287-9.531-21.287-21.287V49.386c0-11.757 9.531-21.287 21.287-21.287h.011c11.757 0 21.287 9.531 21.287 21.287V88.84c0 11.757-9.53 21.288-21.287 21.288zM205.668 110.128h-.011c-11.757 0-21.287-9.531-21.287-21.287V49.386c0-11.757 9.531-21.287 21.287-21.287h.011c11.757 0 21.287 9.531 21.287 21.287V88.84c.001 11.757-9.53 21.288-21.287 21.288zM310.667 110.128h-.011c-11.757 0-21.287-9.531-21.287-21.287V49.386c0-11.757 9.531-21.287 21.287-21.287h.011c11.757 0 21.287 9.531 21.287 21.287V88.84c0 11.757-9.53 21.288-21.287 21.288zM415.665 110.128h-.011c-11.757 0-21.287-9.531-21.287-21.287V49.386c0-11.757 9.531-21.287 21.287-21.287h.011c11.757 0 21.287 9.531 21.287 21.287V88.84c.001 11.757-9.53 21.288-21.287 21.288z" style="" fill="#ffffff" data-original="#ffffff" class=""></path><path d="M501.9 97.517c.072-7.616-6.251-18.713-16.164-24.696a33.51 33.51 0 0 0-17.415-4.861h-31.368v20.876c0 11.763-9.533 21.296-21.296 21.296-11.753 0-21.286-9.533-21.286-21.296V67.959h-62.416v20.876c0 11.763-9.532 21.296-21.296 21.296-11.753 0-21.296-9.533-21.296-21.296V67.959h-62.406v20.876c0 11.763-9.533 21.296-21.296 21.296s-21.296-9.533-21.296-21.296V67.959H121.96v20.876c0 11.763-9.532 21.296-21.296 21.296s-21.296-9.533-21.296-21.296V67.959H43.569C25.024 67.959 10 82.993 10 97.527v348.794c0 22.546 15.024 37.58 33.569 37.58h424.862c18.545 0 33.579-15.044 33.569-37.59l-.1-348.794z" style="stroke-width:20;stroke-linecap:round;stroke-linejoin:round;stroke-miterlimit:10;" fill="none" stroke="#000000" stroke-width="20" stroke-linecap="round" stroke-linejoin="round" stroke-miterlimit="10" data-original="#000000" class=""></path><path d="M302.077 162.464H501.89V97.517c0-7.717-6.237-18.711-16.154-24.696a33.487 33.487 0 0 0-17.415-4.861h-31.368v20.876c0 11.763-9.533 21.296-21.296 21.296-11.753 0-21.285-9.533-21.285-21.296V67.959h-62.417v20.876c0 11.763-9.533 21.296-21.296 21.296-11.753 0-21.296-9.533-21.296-21.296V67.959h-62.406v20.876c0 11.763-9.533 21.296-21.296 21.296s-21.296-9.533-21.296-21.296V67.959H121.96v20.876c0 11.763-9.533 21.296-21.296 21.296s-21.296-9.533-21.296-21.296V67.959H43.569C25.024 67.959 10 82.967 10 97.527v64.937h204.061" style="stroke-width:20;stroke-linecap:round;stroke-linejoin:round;stroke-miterlimit:10;" fill="none" stroke="#000000" stroke-width="20" stroke-linecap="round" stroke-linejoin="round" stroke-miterlimit="10" data-original="#000000" class=""></path><path d="M100.67 110.128h-.011c-11.757 0-21.287-9.531-21.287-21.287V49.386c0-11.757 9.531-21.287 21.287-21.287h.011c11.757 0 21.287 9.531 21.287 21.287V88.84c0 11.757-9.53 21.288-21.287 21.288zM205.668 110.128h-.011c-11.757 0-21.287-9.531-21.287-21.287V49.386c0-11.757 9.531-21.287 21.287-21.287h.011c11.757 0 21.287 9.531 21.287 21.287V88.84c.001 11.757-9.53 21.288-21.287 21.288zM310.667 110.128h-.011c-11.757 0-21.287-9.531-21.287-21.287V49.386c0-11.757 9.531-21.287 21.287-21.287h.011c11.757 0 21.287 9.531 21.287 21.287V88.84c0 11.757-9.53 21.288-21.287 21.288zM415.665 110.128h-.011c-11.757 0-21.287-9.531-21.287-21.287V49.386c0-11.757 9.531-21.287 21.287-21.287h.011c11.757 0 21.287 9.531 21.287 21.287V88.84c.001 11.757-9.53 21.288-21.287 21.288zM200.936 429.092l23.995-63.003c.49-1.199 2.187-1.2 2.68-.003l23.777 63.006M208.419 413.401h35.607M379.896 371.758s-11.467-9.639-24.989-5.565c-12.416 3.74-14.153 18.057-5.17 23.913 0 0 8.814 3.932 18.591 7.538 23.533 8.681 13.396 31.448-5.549 31.448-9.487 0-17.449-4.155-22.269-9.473M272.38 365.189l20.412 31.261 20.244-31.099M292.712 429.092l.08-32.642M130.057 365.417v62.64M173.85 397.221c0 17.563-9.747 31.46-25.212 31.73-5.148.09-18.452.14-18.452.14s-.083-23.088-.083-31.941c0-7.271-.046-31.8-.046-31.8h18.053c16.962.001 25.74 14.309 25.74 31.871zM230.687 207.838h58.161l-46.475 105.723M258.334 162.464h0" style="stroke-width:20;stroke-linecap:round;stroke-linejoin:round;stroke-miterlimit:10;" fill="none" stroke="#000000" stroke-width="20" stroke-linecap="round" stroke-linejoin="round" stroke-miterlimit="10" data-original="#000000" class=""></path></g></svg>