<svg xmlns="http://www.w3.org/2000/svg" version="1.1" xmlns:xlink="http://www.w3.org/1999/xlink" width="512" height="512" x="0" y="0" viewBox="0 0 511.52 511.52" style="enable-background:new 0 0 512 512" xml:space="preserve" class=""><g><path fill="#e5827f" d="M390.842 57.33H51.832c-24.48 0-44.33 19.85-44.33 44.34v32.37l28.307 50.572h376.459l22.904-50.572v-32.37c0-24.49-19.85-44.34-44.33-44.34z" opacity="1" data-original="#e5827f" class=""></path><path fill="#de6a66" d="M60.527 98.046v-32.37c0-2.854.28-5.642.795-8.346h-9.491c-24.48 0-44.33 19.85-44.33 44.34v32.37l28.307 50.572h24.719z" opacity="1" data-original="#de6a66"></path><path fill="#f8f7f8" d="M435.172 134.04v250.83c0 25.1-20.35 45.44-45.45 45.44H51.832c-24.48 0-44.33-19.85-44.33-44.33V134.04z" opacity="1" data-original="#f8f7f8" class=""></path><path fill="#b3adb5" d="M125.041 94.31c-7.447 0-13.485-6.037-13.485-13.485v-47.34c0-7.447 6.037-13.485 13.485-13.485 7.447 0 13.485 6.037 13.485 13.485v47.34c0 7.448-6.038 13.485-13.485 13.485zM317.631 94.31c7.447 0 13.485-6.037 13.485-13.485v-47.34c0-7.447-6.037-13.485-13.485-13.485-7.447 0-13.485 6.037-13.485 13.485v47.34c0 7.448 6.037 13.485 13.485 13.485z" opacity="1" data-original="#b3adb5"></path><path fill="#efedee" d="M396.504 256.488c-70.312 0-127.516 57.204-127.516 127.517v.104c.005 5.621-4.48 10.208-10.1 10.208H104.857c-24.483 0-44.33-19.847-44.33-44.33V134.04H7.502v251.94c0 24.483 19.847 44.33 44.33 44.33h337.89c25.101 0 45.45-20.349 45.45-45.45V262.487a127.038 127.038 0 0 0-38.668-5.999z" opacity="1" data-original="#efedee"></path><circle cx="396.505" cy="384.004" r="107.516" fill="#cfeffc" opacity="1" data-original="#cfeffc"></circle><path fill="#a9e4f9" d="M327.656 386.304c0-54.972 41.258-100.302 94.497-106.729a107.753 107.753 0 0 0-25.648-3.086c-59.379 0-107.516 48.136-107.516 107.516S337.125 491.52 396.505 491.52c4.407 0 8.751-.271 13.019-.787-46.995-11.503-81.868-53.89-81.868-104.429z" opacity="1" data-original="#a9e4f9"></path><g fill="#cfeffc"><path d="M95.138 321.283H62.215a6.598 6.598 0 0 1-6.598-6.598v-32.922a6.598 6.598 0 0 1 6.598-6.598h32.922a6.598 6.598 0 0 1 6.598 6.598v32.922a6.598 6.598 0 0 1-6.597 6.598zM173.614 321.283h-32.922a6.598 6.598 0 0 1-6.598-6.598v-32.922a6.598 6.598 0 0 1 6.598-6.598h32.922a6.598 6.598 0 0 1 6.598 6.598v32.922a6.6 6.6 0 0 1-6.598 6.598zM252.09 321.283h-32.922a6.598 6.598 0 0 1-6.598-6.598v-32.922a6.598 6.598 0 0 1 6.598-6.598h32.922a6.598 6.598 0 0 1 6.598 6.598v32.922a6.599 6.599 0 0 1-6.598 6.598zM313.882 234.854H280.96a6.598 6.598 0 0 1-6.598-6.598v-32.922a6.598 6.598 0 0 1 6.598-6.598h32.922a6.598 6.598 0 0 1 6.598 6.598v32.922a6.599 6.599 0 0 1-6.598 6.598zM391.907 234.854h-32.922a6.598 6.598 0 0 1-6.598-6.598v-32.922a6.598 6.598 0 0 1 6.598-6.598h32.922a6.598 6.598 0 0 1 6.598 6.598v32.922a6.598 6.598 0 0 1-6.598 6.598zM95.138 395.15H62.215a6.598 6.598 0 0 1-6.598-6.598V355.63a6.598 6.598 0 0 1 6.598-6.598h32.922a6.598 6.598 0 0 1 6.598 6.598v32.922a6.598 6.598 0 0 1-6.597 6.598zM173.614 395.15h-32.922a6.598 6.598 0 0 1-6.598-6.598V355.63a6.598 6.598 0 0 1 6.598-6.598h32.922a6.598 6.598 0 0 1 6.598 6.598v32.922a6.6 6.6 0 0 1-6.598 6.598zM252.09 395.15h-32.922a6.598 6.598 0 0 1-6.598-6.598V355.63a6.598 6.598 0 0 1 6.598-6.598h32.922a6.598 6.598 0 0 1 6.598 6.598v32.922a6.599 6.599 0 0 1-6.598 6.598z" fill="#cfeffc" opacity="1" data-original="#cfeffc"></path></g><circle cx="396.505" cy="384.004" r="15.763" fill="#cecece" opacity="1" data-original="#cecece"></circle><path d="M396.504 325.142a7.499 7.499 0 0 0-7.5 7.5v29.347c-9.157 3.128-15.763 11.812-15.763 22.015 0 12.827 10.436 23.263 23.263 23.263 3.682 0 7.165-.864 10.263-2.393l24.95 24.95c1.465 1.464 3.385 2.196 5.304 2.196s3.839-.732 5.304-2.196a7.5 7.5 0 0 0 0-10.607l-24.95-24.95a23.122 23.122 0 0 0 2.393-10.262c0-10.203-6.606-18.887-15.763-22.015v-29.347a7.5 7.5 0 0 0-7.501-7.501zm8.263 58.862c0 4.556-3.707 8.263-8.263 8.263s-8.263-3.707-8.263-8.263 3.707-8.263 8.263-8.263 8.263 3.707 8.263 8.263zM192.066 166.798a7.498 7.498 0 0 0-9.741 4.197l-25.694 64.603a7.5 7.5 0 0 0 6.967 10.273 7.505 7.505 0 0 0 6.972-4.73l25.694-64.603a7.5 7.5 0 0 0-4.198-9.74zM221.311 245.236a7.467 7.467 0 0 0 3.014.636 7.503 7.503 0 0 0 6.87-4.483l28.399-64.603a7.499 7.499 0 0 0-6.866-10.518h-35.539c-4.142 0-7.5 3.357-7.5 7.5s3.358 7.5 7.5 7.5h24.049l-23.774 54.084a7.499 7.499 0 0 0 3.847 9.884zM126.945 244.093a7.5 7.5 0 0 0 7.5-7.5v-13.767h4.05c4.142 0 7.5-3.357 7.5-7.5s-3.358-7.5-7.5-7.5h-4.05v-33.974c0-4.722-3.046-8.777-7.58-10.093-4.532-1.312-9.271.479-11.797 4.465-9.274 14.639-26.387 42.938-26.559 43.222a7.499 7.499 0 0 0 6.419 11.379h24.517v13.767a7.5 7.5 0 0 0 7.5 7.501zm-18.689-36.267a3884.745 3884.745 0 0 1 11.189-18.269v18.269z" fill="#000000" opacity="1" data-original="#000000" class=""></path><path d="M64.793 200.481c-10.23 14.617-16.335 22.61-19.615 26.905-4.085 5.35-5.95 7.791-4.674 11.938.75 2.44 2.598 4.312 5.069 5.135.994.332 1.948.649 14.562.649 4.928 0 11.637-.049 20.823-.164a7.5 7.5 0 0 0-.093-14.999l-.096.001c-6.392.08-13.168.133-18.828.146 3.574-4.783 8.508-11.532 15.141-21.009 4.141-5.917 6.843-11.513 8.03-16.631.057-.245.102-.494.133-.744l.319-2.499c.041-.314.061-.633.061-.95 0-13.25-10.78-24.03-24.03-24.03-11.457 0-21.374 8.15-23.58 19.381a7.5 7.5 0 0 0 14.719 2.891c.828-4.213 4.554-7.271 8.861-7.271 4.843 0 8.808 3.832 9.021 8.624l-.198 1.545c-.802 3.167-2.693 6.893-5.625 11.082zM109.235 281.763c0-7.773-6.324-14.098-14.098-14.098H62.215c-7.773 0-14.098 6.324-14.098 14.098v32.922c0 7.773 6.324 14.098 14.098 14.098h32.922c7.773 0 14.098-6.324 14.098-14.098zm-15 32.019H63.118v-31.117h31.118v31.117zM187.711 281.763c0-7.773-6.324-14.098-14.098-14.098h-32.922c-7.773 0-14.098 6.324-14.098 14.098v32.922c0 7.773 6.324 14.098 14.098 14.098h32.922c7.773 0 14.098-6.324 14.098-14.098zm-15 32.019h-31.118v-31.117h31.118zM266.187 281.763c0-7.773-6.324-14.098-14.097-14.098h-32.922c-7.773 0-14.098 6.324-14.098 14.098v32.922c0 7.773 6.324 14.098 14.098 14.098h32.922c7.773 0 14.097-6.324 14.097-14.098zm-15 32.019H220.07v-31.117h31.117zM327.979 228.256v-32.923c0-7.773-6.324-14.098-14.098-14.098h-32.922c-7.773 0-14.098 6.324-14.098 14.098v32.923c0 7.773 6.324 14.098 14.098 14.098h32.922c7.774 0 14.098-6.324 14.098-14.098zm-15-.902h-31.117v-31.118h31.117zM358.985 181.236c-7.773 0-14.098 6.324-14.098 14.098v32.923c0 7.773 6.324 14.098 14.098 14.098h32.922c7.773 0 14.098-6.324 14.098-14.098v-32.923c0-7.773-6.324-14.098-14.098-14.098zm32.019 46.118h-31.117v-31.118h31.117zM62.215 402.65h32.922c7.773 0 14.098-6.324 14.098-14.098V355.63c0-7.773-6.324-14.098-14.098-14.098H62.215c-7.773 0-14.098 6.324-14.098 14.098v32.922c.001 7.773 6.325 14.098 14.098 14.098zm.903-46.118h31.118v31.117H63.118zM140.691 402.65h32.922c7.773 0 14.098-6.324 14.098-14.098V355.63c0-7.773-6.324-14.098-14.098-14.098h-32.922c-7.773 0-14.098 6.324-14.098 14.098v32.922c.001 7.773 6.325 14.098 14.098 14.098zm.903-46.118h31.118v31.117h-31.118zM252.09 341.532h-32.922c-7.773 0-14.098 6.324-14.098 14.098v32.922c0 7.773 6.324 14.098 14.098 14.098h32.922c7.773 0 14.097-6.324 14.097-14.098V355.63c0-7.773-6.324-14.098-14.097-14.098zm-.903 46.118H220.07v-31.117h31.117z" fill="#000000" opacity="1" data-original="#000000" class=""></path><path d="M267.02 422.813H51.833C31.523 422.813 15 406.29 15 385.981V323.96c0-4.143-3.358-7.5-7.5-7.5s-7.5 3.357-7.5 7.5v62.021c0 28.58 23.252 51.832 51.833 51.832H267.02c4.143 0 7.5-3.357 7.5-7.5s-3.357-7.5-7.5-7.5zM7.5 299.497a7.5 7.5 0 0 0 7.5-7.5V141.539h337.387c4.143 0 7.5-3.357 7.5-7.5s-3.357-7.5-7.5-7.5H15v-24.875c0-20.31 16.523-36.832 36.833-36.832h52.223v15.993c0 11.571 9.414 20.985 20.985 20.985s20.985-9.414 20.985-20.985V64.832h150.62v15.993c0 11.571 9.413 20.985 20.984 20.985s20.985-9.414 20.985-20.985V64.832h52.223c20.31 0 36.833 16.522 36.833 36.832v24.875h-43.322c-4.143 0-7.5 3.357-7.5 7.5s3.357 7.5 7.5 7.5h43.322v110.49c0 4.143 3.357 7.5 7.5 7.5s7.5-3.357 7.5-7.5V101.664c0-28.58-23.252-51.832-51.833-51.832h-52.223V33.486c0-11.571-9.414-20.985-20.985-20.985s-20.984 9.414-20.984 20.985v16.347h-150.62V33.486c0-11.571-9.414-20.985-20.985-20.985s-20.985 9.414-20.985 20.985v16.347H51.833C23.252 49.832 0 73.084 0 101.664v190.333a7.5 7.5 0 0 0 7.5 7.5zM311.646 33.486a5.991 5.991 0 0 1 5.984-5.985 5.991 5.991 0 0 1 5.985 5.985v47.34c0 3.301-2.685 5.985-5.985 5.985s-5.984-2.685-5.984-5.985zm-192.59 0c0-3.301 2.685-5.985 5.985-5.985s5.985 2.685 5.985 5.985v47.34c0 3.301-2.685 5.985-5.985 5.985s-5.985-2.685-5.985-5.985zM507.449 353.598a7.501 7.501 0 0 0-14.469 3.957 99.978 99.978 0 0 1 3.251 18.949h-11.877c-4.143 0-7.5 3.357-7.5 7.5s3.357 7.5 7.5 7.5h11.885c-1.635 21.947-10.384 41.942-23.943 57.686l-8.37-8.37a7.5 7.5 0 0 0-10.606-.001 7.498 7.498 0 0 0-.001 10.606l8.37 8.371c-15.743 13.559-35.739 22.308-57.686 23.943v-11.887c0-4.143-3.357-7.5-7.5-7.5s-7.5 3.357-7.5 7.5v11.887c-21.947-1.635-41.942-10.384-57.685-23.943l8.371-8.371a7.5 7.5 0 0 0-10.607-10.607l-8.371 8.371c-13.558-15.743-22.308-35.738-23.943-57.685h11.886c4.143 0 7.5-3.357 7.5-7.5s-3.357-7.5-7.5-7.5h-11.886c1.635-21.947 10.384-41.943 23.943-57.686l8.371 8.371c1.464 1.464 3.384 2.196 5.303 2.196s3.839-.732 5.304-2.197a7.498 7.498 0 0 0-.001-10.606l-8.37-8.37c15.743-13.559 35.739-22.308 57.686-23.943v11.886c0 4.143 3.357 7.5 7.5 7.5s7.5-3.357 7.5-7.5v-11.878c21.571 1.596 41.694 10.038 57.739 23.881l-8.424 8.424a7.5 7.5 0 1 0 10.608 10.607l8.406-8.406a101.639 101.639 0 0 1 8.602 11.586 7.5 7.5 0 1 0 12.652-8.056c-21.259-33.39-57.552-53.323-97.083-53.323-63.42 0-115.016 51.596-115.016 115.016S333.084 499.02 396.504 499.02 511.52 447.424 511.52 384.004a115.3 115.3 0 0 0-4.071-30.406z" fill="#000000" opacity="1" data-original="#000000" class=""></path></g></svg>