<svg xmlns="http://www.w3.org/2000/svg" version="1.1" xmlns:xlink="http://www.w3.org/1999/xlink" width="512" height="512" x="0" y="0" viewBox="0 0 512 512" style="enable-background:new 0 0 512 512" xml:space="preserve" class=""><g><path fill="#ffffff" d="M251.265 491.958H53.645c-20.399 0-36.921-16.523-36.921-36.922v-350.65c0-20.398 16.523-36.922 36.921-36.922h55.178v30.19c0 12.137 9.893 22.031 22.03 22.031s22.03-9.894 22.03-22.031v-30.19h206.229v30.19c0 12.137 9.893 22.031 22.03 22.031s22.031-9.894 22.031-22.031v-30.19h55.178c20.399 0 36.921 16.523 36.921 36.922v350.65c0 20.398-16.523 36.922-36.921 36.922z" opacity="1" data-original="#ffffff" class=""></path><path fill="#fccd06" d="M261.893 67.465h97.22v30.19c0 12.137 9.893 22.031 22.03 22.031s22.031-9.894 22.031-22.031v-30.19h55.178c20.399 0 36.921 16.523 36.921 36.922v73.026H16.724v-73.026c0-20.398 16.523-36.922 36.921-36.922h55.178v30.19c0 12.137 9.893 22.031 22.03 22.031s22.03-9.894 22.03-22.031v-30.19z" opacity="1" data-original="#fccd06" class=""></path><path fill="#ffffff" d="M130.859 20.039c6.119 0 11.627 2.448 15.605 6.426 3.977 4.079 6.425 9.587 6.425 15.707v55.484c0 12.137-9.893 22.031-22.03 22.031s-22.03-9.894-22.03-22.031V42.171c0-12.239 9.893-22.132 22.03-22.132M381.137 20.039c6.119 0 11.627 2.448 15.605 6.426 3.977 4.079 6.425 9.587 6.425 15.707v55.484c0 12.137-9.893 22.031-22.03 22.031s-22.03-9.894-22.03-22.031V42.171c0-12.239 9.893-22.132 22.03-22.132" opacity="1" data-original="#ffffff" class=""></path><path fill="#fccd06" d="M108.402 214.254h15.308c5.968 0 10.811 4.843 10.811 10.811v30.617c0 5.968-4.843 10.811-10.811 10.811H93.094c-5.968 0-10.811-4.843-10.811-10.811v-30.617c0-5.968 4.843-10.811 10.811-10.811zM206.799 214.254h15.308c5.968 0 10.811 4.843 10.811 10.811v30.617c0 5.968-4.843 10.811-10.811 10.811h-30.616c-5.968 0-10.811-4.843-10.811-10.811v-30.617c0-5.968 4.843-10.811 10.811-10.811zM305.197 214.254h15.308c5.968 0 10.811 4.843 10.811 10.811v30.617c0 5.968-4.843 10.811-10.811 10.811h-30.616c-5.968 0-10.811-4.843-10.811-10.811v-30.617c0-5.968 4.843-10.811 10.811-10.811zM403.594 214.254h15.308c5.968 0 10.811 4.843 10.811 10.811v30.617c0 5.968-4.843 10.811-10.811 10.811h-30.616c-5.968 0-10.811-4.843-10.811-10.811v-30.617c0-5.968 4.843-10.811 10.811-10.811zM108.402 305.831h15.308c5.968 0 10.811 4.843 10.811 10.811v30.617c0 5.968-4.843 10.811-10.811 10.811H93.094c-5.968 0-10.811-4.843-10.811-10.811v-30.617c0-5.968 4.843-10.811 10.811-10.811zM206.799 305.831h15.308c5.968 0 10.811 4.843 10.811 10.811v30.617c0 5.968-4.843 10.811-10.811 10.811h-30.616c-5.968 0-10.811-4.843-10.811-10.811v-30.617c0-5.968 4.843-10.811 10.811-10.811zM305.197 305.831h15.308c5.968 0 10.811 4.843 10.811 10.811v30.617c0 5.968-4.843 10.811-10.811 10.811h-30.616c-5.968 0-10.811-4.843-10.811-10.811v-30.617c0-5.968 4.843-10.811 10.811-10.811zM403.594 305.831h15.308c5.968 0 10.811 4.843 10.811 10.811v30.617c0 5.968-4.843 10.811-10.811 10.811h-30.616c-5.968 0-10.811-4.843-10.811-10.811v-30.617c0-5.968 4.843-10.811 10.811-10.811zM108.402 397.407h15.308c5.968 0 10.811 4.843 10.811 10.811v30.617c0 5.968-4.843 10.811-10.811 10.811H93.094c-5.968 0-10.811-4.843-10.811-10.811v-30.617c0-5.968 4.843-10.811 10.811-10.811zM206.799 397.407h15.308c5.968 0 10.811 4.843 10.811 10.811v30.617c0 5.968-4.843 10.811-10.811 10.811h-30.616c-5.968 0-10.811-4.843-10.811-10.811v-30.617c0-5.968 4.843-10.811 10.811-10.811zM305.197 397.407h15.308c5.968 0 10.811 4.843 10.811 10.811v30.617c0 5.968-4.843 10.811-10.811 10.811h-30.616c-5.968 0-10.811-4.843-10.811-10.811v-30.617c0-5.968 4.843-10.811 10.811-10.811zM403.594 397.407h15.308c5.968 0 10.811 4.843 10.811 10.811v30.617c0 5.968-4.843 10.811-10.811 10.811h-30.616c-5.968 0-10.811-4.843-10.811-10.811v-30.617c0-5.968 4.843-10.811 10.811-10.811z" opacity="1" data-original="#fccd06" class=""></path><g fill="#3e3e3e"><path d="M458.348 59.747h-47.464V42.169c0-16.531-13.139-29.849-29.743-29.849-16.402 0-29.751 13.387-29.751 29.849v17.578H160.604V42.169c0-16.531-13.139-29.849-29.743-29.849-16.402 0-29.751 13.387-29.751 29.849v17.578H53.645c-24.61 0-44.638 20.027-44.638 44.638v350.65c0 24.618 20.027 44.645 44.638 44.645h404.703c24.618 0 44.645-20.027 44.645-44.645v-350.65c0-24.611-20.028-44.638-44.645-44.638zm-77.208-31.99c8.255 0 14.306 6.629 14.306 14.412v55.484c0 7.89-6.413 14.314-14.306 14.314-7.891 0-14.306-6.42-14.306-14.314l-.008-55.484c0-7.945 6.422-14.412 14.314-14.412zM116.546 42.169c0-7.945 6.422-14.412 14.314-14.412 8.255 0 14.306 6.629 14.306 14.412v55.484c0 7.889-6.419 14.311-14.31 14.313-7.89-.002-14.31-6.423-14.31-14.313zm-92.102 62.215c0-16.1 13.1-29.201 29.201-29.201h47.457v22.47c0 16.402 13.349 29.751 29.751 29.751h.008c16.402 0 29.743-13.349 29.743-29.751v-22.47h190.785v22.47c0 16.402 13.349 29.751 29.751 29.751s29.751-13.349 29.751-29.751v-22.47h47.457c16.108 0 29.208 13.1 29.208 29.201v65.314H24.444zm433.904 379.859H53.645c-16.1 0-29.201-13.1-29.201-29.208v-269.9h463.112v269.9c0 16.108-13.101 29.208-29.208 29.208z" fill="#3e3e3e" opacity="1" data-original="#3e3e3e" class=""></path><path d="M123.707 206.534h-30.61c-10.221 0-18.535 8.314-18.535 18.527v30.618c0 10.221 8.314 18.535 18.535 18.535h30.61c10.221 0 18.535-8.314 18.535-18.535v-30.618c0-10.213-8.314-18.527-18.535-18.527zm3.098 49.146a3.098 3.098 0 0 1-3.098 3.098h-30.61a3.098 3.098 0 0 1-3.098-3.098v-30.618a3.096 3.096 0 0 1 3.098-3.09h30.61a3.096 3.096 0 0 1 3.098 3.09zM222.111 206.534h-30.618c-10.213 0-18.527 8.314-18.527 18.527v30.618c0 10.221 8.314 18.535 18.527 18.535h30.618c10.213 0 18.527-8.314 18.527-18.535v-30.618c0-10.213-8.314-18.527-18.527-18.527zm3.09 49.146a3.096 3.096 0 0 1-3.09 3.098h-30.618a3.096 3.096 0 0 1-3.09-3.098v-30.618a3.095 3.095 0 0 1 3.09-3.09h30.618a3.095 3.095 0 0 1 3.09 3.09zM320.507 206.534h-30.618c-10.213 0-18.527 8.314-18.527 18.527v30.618c0 10.221 8.314 18.535 18.527 18.535h30.618c10.214 0 18.527-8.314 18.527-18.535v-30.618c0-10.213-8.314-18.527-18.527-18.527zm3.09 49.146a3.096 3.096 0 0 1-3.09 3.098h-30.618a3.096 3.096 0 0 1-3.09-3.098v-30.618a3.095 3.095 0 0 1 3.09-3.09h30.618a3.094 3.094 0 0 1 3.09 3.09zM418.903 206.534h-30.618c-10.213 0-18.527 8.314-18.527 18.527v30.618c0 10.221 8.314 18.535 18.527 18.535h30.618c10.214 0 18.527-8.314 18.527-18.535v-30.618c.001-10.213-8.313-18.527-18.527-18.527zm3.091 49.146a3.096 3.096 0 0 1-3.09 3.098h-30.618a3.096 3.096 0 0 1-3.09-3.098v-30.618a3.095 3.095 0 0 1 3.09-3.09h30.618a3.094 3.094 0 0 1 3.09 3.09zM123.707 298.109h-30.61c-10.221 0-18.535 8.314-18.535 18.535v30.61c0 10.221 8.314 18.535 18.535 18.535h30.61c10.221 0 18.535-8.314 18.535-18.535v-30.61c0-10.221-8.314-18.535-18.535-18.535zm3.098 49.145a3.098 3.098 0 0 1-3.098 3.098h-30.61a3.098 3.098 0 0 1-3.098-3.098v-30.61a3.098 3.098 0 0 1 3.098-3.098h30.61a3.098 3.098 0 0 1 3.098 3.098zM222.111 298.109h-30.618c-10.213 0-18.527 8.314-18.527 18.535v30.61c0 10.221 8.314 18.535 18.527 18.535h30.618c10.213 0 18.527-8.314 18.527-18.535v-30.61c0-10.221-8.314-18.535-18.527-18.535zm3.09 49.145a3.096 3.096 0 0 1-3.09 3.098h-30.618a3.096 3.096 0 0 1-3.09-3.098v-30.61a3.096 3.096 0 0 1 3.09-3.098h30.618a3.096 3.096 0 0 1 3.09 3.098zM320.507 298.109h-30.618c-10.213 0-18.527 8.314-18.527 18.535v30.61c0 10.221 8.314 18.535 18.527 18.535h30.618c10.214 0 18.527-8.314 18.527-18.535v-30.61c0-10.221-8.314-18.535-18.527-18.535zm3.09 49.145a3.096 3.096 0 0 1-3.09 3.098h-30.618a3.096 3.096 0 0 1-3.09-3.098v-30.61a3.096 3.096 0 0 1 3.09-3.098h30.618a3.096 3.096 0 0 1 3.09 3.098zM418.903 298.109h-30.618c-10.213 0-18.527 8.314-18.527 18.535v30.61c0 10.221 8.314 18.535 18.527 18.535h30.618c10.214 0 18.527-8.314 18.527-18.535v-30.61c.001-10.221-8.313-18.535-18.527-18.535zm3.091 49.145a3.096 3.096 0 0 1-3.09 3.098h-30.618a3.096 3.096 0 0 1-3.09-3.098v-30.61a3.096 3.096 0 0 1 3.09-3.098h30.618a3.096 3.096 0 0 1 3.09 3.098zM123.707 389.691h-30.61c-10.221 0-18.535 8.314-18.535 18.527v30.618c0 10.214 8.314 18.527 18.535 18.527h30.61c10.221 0 18.535-8.314 18.535-18.527v-30.618c0-10.213-8.314-18.527-18.535-18.527zm3.098 49.145a3.096 3.096 0 0 1-3.098 3.09h-30.61a3.096 3.096 0 0 1-3.098-3.09v-30.618a3.096 3.096 0 0 1 3.098-3.09h30.61a3.096 3.096 0 0 1 3.098 3.09zM222.111 389.691h-30.618c-10.213 0-18.527 8.314-18.527 18.527v30.618c0 10.214 8.314 18.527 18.527 18.527h30.618c10.213 0 18.527-8.314 18.527-18.527v-30.618c0-10.213-8.314-18.527-18.527-18.527zm3.09 49.145a3.094 3.094 0 0 1-3.09 3.09h-30.618a3.094 3.094 0 0 1-3.09-3.09v-30.618a3.095 3.095 0 0 1 3.09-3.09h30.618a3.095 3.095 0 0 1 3.09 3.09zM320.507 389.691h-30.618c-10.213 0-18.527 8.314-18.527 18.527v30.618c0 10.214 8.314 18.527 18.527 18.527h30.618c10.214 0 18.527-8.314 18.527-18.527v-30.618c0-10.213-8.314-18.527-18.527-18.527zm3.09 49.145a3.094 3.094 0 0 1-3.09 3.09h-30.618a3.095 3.095 0 0 1-3.09-3.09v-30.618a3.095 3.095 0 0 1 3.09-3.09h30.618a3.094 3.094 0 0 1 3.09 3.09zM418.903 389.691h-30.618c-10.213 0-18.527 8.314-18.527 18.527v30.618c0 10.214 8.314 18.527 18.527 18.527h30.618c10.214 0 18.527-8.314 18.527-18.527v-30.618c.001-10.213-8.313-18.527-18.527-18.527zm3.091 49.145a3.094 3.094 0 0 1-3.09 3.09h-30.618a3.095 3.095 0 0 1-3.09-3.09v-30.618a3.095 3.095 0 0 1 3.09-3.09h30.618a3.094 3.094 0 0 1 3.09 3.09z" fill="#3e3e3e" opacity="1" data-original="#3e3e3e" class=""></path></g></g></svg>