<svg xmlns="http://www.w3.org/2000/svg" version="1.1" xmlns:xlink="http://www.w3.org/1999/xlink" width="512" height="512" x="0" y="0" viewBox="0 0 682.667 682.667" style="enable-background:new 0 0 512 512" xml:space="preserve" class=""><g><defs><clipPath id="a" clipPathUnits="userSpaceOnUse"><path d="M0 512h512V0H0Z" fill="#000000" opacity="1" data-original="#000000"></path></clipPath></defs><g clip-path="url(#a)" transform="matrix(1.33333 0 0 -1.33333 0 682.667)"><path d="M0 0c0-25.076-4.64-46.893-13.918-65.826-9.403-18.807-21.941-34.48-37.865-47.143-16.049-12.538-34.606-22.068-55.921-28.462-21.315-6.395-44.135-9.529-68.459-9.529-16.425 0-31.596 1.379-45.764 4.137-14.043 2.759-26.456 6.019-37.239 9.906-10.782 3.761-19.81 7.773-27.082 12.036-7.273 4.263-12.413 8.025-15.673 11.159-3.135 3.261-5.391 7.9-6.77 13.918-1.38 6.018-2.007 14.544-2.007 25.828 0 7.649.251 13.918.753 19.059.501 5.14 1.254 9.278 2.382 12.538 1.128 3.134 2.632 5.391 4.388 6.771 1.881 1.379 4.012 2.005 6.52 2.005 3.385 0 8.275-2.005 14.545-6.143 6.268-4.012 14.293-8.526 24.073-13.416 9.779-4.89 21.565-9.403 35.232-13.416 13.541-4.137 29.339-6.144 47.27-6.144 11.785 0 22.317 1.38 31.596 4.138 9.403 2.884 17.302 6.771 23.822 11.911 6.52 5.141 11.41 11.41 14.921 18.933 3.385 7.523 5.14 15.924 5.14 25.202 0 10.783-2.883 20.061-8.776 27.709-5.894 7.774-13.541 14.545-23.07 20.563-9.404 6.018-20.187 11.661-32.224 16.926-11.911 5.267-24.324 10.783-37.113 16.676-12.789 5.893-25.202 12.539-37.114 20.061-12.036 7.398-22.819 16.3-32.222 26.707-9.529 10.407-17.178 22.694-23.071 36.988-5.893 14.168-8.777 31.22-8.777 51.031 0 22.694 4.263 42.755 12.664 60.058 8.401 17.177 19.811 31.47 34.104 42.881 14.419 11.409 31.22 19.935 50.654 25.577 19.435 5.643 40.122 8.401 61.939 8.401 11.16 0 22.444-.878 33.728-2.633a225.68 225.68 0 0 0 31.597-6.896c9.779-3.01 18.43-6.269 26.079-9.906 7.523-3.761 12.538-6.77 15.046-9.278 2.383-2.382 4.012-4.514 4.89-6.143.877-1.756 1.63-4.013 2.256-6.896.627-2.759 1.004-6.27 1.255-10.658.25-4.263.376-9.529.376-15.923 0-7.022-.126-13.04-.502-17.93-.376-4.89-1.003-8.902-1.881-12.162-.878-3.135-2.132-5.517-3.636-6.896-1.629-1.505-3.761-2.257-6.519-2.257-2.634 0-6.897 1.755-12.789 5.141-5.894 3.385-13.166 7.147-21.692 11.284-8.651 4.012-18.556 7.648-29.84 10.908-11.285 3.386-23.573 5.016-37.114 5.016-10.532 0-19.685-1.254-27.584-3.888-7.774-2.507-14.294-6.143-19.559-10.657-5.267-4.514-9.279-9.905-11.787-16.3-2.632-6.394-3.886-13.165-3.886-20.186 0-10.532 2.884-19.685 8.651-27.333 5.768-7.774 13.541-14.67 23.196-20.688 9.654-5.893 20.688-11.536 32.975-16.801 12.162-5.267 24.7-10.909 37.489-16.677 12.79-5.892 25.328-12.538 37.49-20.061 12.288-7.523 23.196-16.425 32.85-26.831 9.53-10.407 17.303-22.57 23.196-36.737C-2.885 35.608 0 19.058 0 0" style="fill-opacity:1;fill-rule:evenodd;stroke:none" transform="translate(411.349 160.96)" fill="#635bff" data-original="#ffc144" class="" opacity="1"></path><path d="M0 0c-11.075 7.091-21.052 15.492-29.828 25.204-9.528 10.406-17.177 22.693-23.069 36.987-5.894 14.168-8.778 31.221-8.778 51.031 0 22.694 4.264 42.755 12.664 60.058 8.401 17.177 19.81 31.47 34.104 42.881 14.419 11.409 31.22 19.935 50.654 25.577 19.435 5.642 40.122 8.401 61.94 8.401 11.159 0 22.443-.878 33.727-2.633a225.68 225.68 0 0 0 31.597-6.896c9.78-3.009 18.43-6.269 26.08-9.905 7.522-3.762 12.537-6.77 15.045-9.279 2.383-2.382 4.012-4.513 4.89-6.144.878-1.755 1.63-4.011 2.256-6.895.627-2.759 1.004-6.269 1.254-10.658.251-4.263.377-9.529.377-15.923 0-7.022-.126-13.04-.502-17.931-.376-4.889-1.003-8.901-1.881-12.161-.877-3.134-2.132-5.517-3.635-6.896-1.63-1.505-3.762-2.257-6.521-2.257-2.633 0-6.895 1.755-12.788 5.141-5.894 3.385-13.166 7.146-21.691 11.284-8.652 4.013-18.557 7.648-29.842 10.909-11.284 3.385-23.572 5.015-37.113 5.015-10.532 0-19.685-1.254-27.584-3.887-7.774-2.508-14.293-6.144-19.56-10.658-5.266-4.513-9.277-9.905-11.786-16.3-2.632-6.394-3.887-13.165-3.887-20.186 0-10.532 2.885-19.685 8.652-27.333 5.768-7.774 13.541-14.67 23.196-20.688 9.654-5.893 20.688-11.536 32.975-16.801 12.162-5.266 24.7-10.909 37.49-16.677 12.789-5.892 25.327-12.537 37.489-20.061 12.288-7.523 23.196-16.424 32.85-26.831 9.53-10.407 17.303-22.57 23.196-36.738 5.892-14.042 8.777-30.593 8.777-49.65 0-25.077-4.64-46.894-13.918-65.827-9.403-18.807-21.941-34.48-37.865-47.143-16.049-12.538-34.606-22.067-55.921-28.462-21.315-6.395-44.135-9.529-68.459-9.529-16.425 0-31.596 1.379-45.764 4.137-14.044 2.759-26.456 6.019-37.239 9.906-10.783 3.761-19.81 7.773-27.083 12.036-7.271 4.263-12.412 8.025-15.672 11.159-3.135 3.261-5.391 7.9-6.77 13.918-1.38 6.018-2.007 14.544-2.007 25.829 0 7.648.251 13.917.753 19.058.501 5.14 1.254 9.278 2.382 12.538 1.128 3.134 2.633 5.392 4.388 6.771 1.881 1.379 4.012 2.006 6.52 2.006 3.386 0 8.275-2.006 14.545-6.144 6.268-4.013 14.293-8.526 24.073-13.416 9.779-4.89 21.565-9.403 35.232-13.416 13.541-4.137 29.339-6.144 47.27-6.144 11.785 0 22.318 1.38 31.596 4.138 9.403 2.884 17.302 6.771 23.822 11.911 6.52 5.141 11.41 11.41 14.921 18.933 3.385 7.523 5.14 15.924 5.14 25.202 0 10.783-2.883 20.061-8.776 27.709-5.894 7.774-13.541 14.545-23.07 20.563-8.365 5.353-17.821 10.409-28.28 15.167" style="stroke-width:20;stroke-linecap:round;stroke-linejoin:round;stroke-miterlimit:2.613;stroke-dasharray:none;stroke-opacity:1" transform="translate(170.6 251.862)" fill="none" stroke="#000000" stroke-width="20" stroke-linecap="round" stroke-linejoin="round" stroke-miterlimit="2.613" stroke-dasharray="none" stroke-opacity="" data-original="#000000" class=""></path><path d="M0 0h.008" style="stroke-width:20;stroke-linecap:round;stroke-linejoin:round;stroke-miterlimit:2.613;stroke-dasharray:none;stroke-opacity:1" transform="translate(210.102 230.297)" fill="none" stroke="#000000" stroke-width="20" stroke-linecap="round" stroke-linejoin="round" stroke-miterlimit="2.613" stroke-dasharray="none" stroke-opacity="" data-original="#000000" class=""></path></g></g></svg>