<svg xmlns="http://www.w3.org/2000/svg" version="1.1" xmlns:xlink="http://www.w3.org/1999/xlink" width="512" height="512" x="0" y="0" viewBox="0 0 512.001 512.001" style="enable-background:new 0 0 512 512" xml:space="preserve" class=""><g><path fill="#9be69d" d="M316.606 47.907 255.996 7.5v24.244c-123.851.003-224.252 100.405-224.252 224.257h32.325c0-105.999 85.928-191.929 191.927-191.931v24.244z" opacity="1" data-original="#9be69d"></path><path fill="#6fd7a3" d="m195.395 464.094 60.61 40.406v-24.244C379.856 480.254 480.257 379.852 480.257 256h-32.325c0 105.999-85.928 191.929-191.927 191.931v-24.244z" opacity="1" data-original="#6fd7a3"></path><path fill="#ffe177" d="M250.838 129.073c-10.172 16.579-33.662 54.663-54.841 87.531l-5.969-13.513c-2.03-4.597-8.445-4.874-10.859-.467-8.404 15.338-22.645 46.284-24.07 81.957-2.32 58.09 43.719 107.314 101.852 106.777 55.351-.511 100.064-45.54 100.064-101.012 0-38.073-15.325-71.548-24.179-87.711-2.416-4.411-8.833-4.146-10.865.455l-5.969 13.514c-21.179-32.868-44.669-70.952-54.841-87.531-2.364-3.855-7.957-3.855-10.323 0z" opacity="1" data-original="#ffe177"></path><path fill="#ffd15b" d="m321.972 203.091-5.969 13.513a3192.888 3192.888 0 0 1-12.173-19.051c-4.333 26.438-13.922 55.727-28.732 84.891-20.591 40.548-47.33 73.092-73.819 92.823 15.521 10.022 33.965 15.908 53.772 16.091 58.131.535 104.161-48.663 101.851-106.751-1.419-35.684-15.665-66.642-24.071-81.984-2.414-4.406-8.829-4.128-10.859.468z" opacity="1" data-original="#ffd15b"></path><path fill="#fdb441" d="M250.84 226.035c-7.238 11.771-20.914 33.871-33.349 53.169l-2.012-4.556c-2.065-4.676-8.654-4.864-10.949-.296-5.21 10.376-12.048 27.341-13.194 46.627-2.263 38.066 27.469 70.915 65.599 70.377 35.375-.499 63.898-29.331 63.898-64.825 0-21.556-7.654-40.815-13.359-52.176-2.295-4.57-8.884-4.385-10.95.293l-2.012 4.556c-12.435-19.298-26.112-41.399-33.349-53.169-2.369-3.849-7.956-3.849-10.323 0z" opacity="1" data-original="#fdb441"></path><path fill="#fea713" d="M320.666 320.991c-1.144-19.291-7.984-36.261-13.195-46.638-2.294-4.568-8.883-4.38-10.949.296l-2.012 4.556a2155.894 2155.894 0 0 1-10.324-16.194 334.034 334.034 0 0 1-9.088 19.435c-18.867 37.152-42.895 67.576-67.162 87.591 11.94 13.184 29.227 21.435 48.441 21.326 37.616-.215 66.517-32.822 64.289-70.372z" opacity="1" data-original="#fea713"></path><path d="M248.5 71.721V88.31a7.497 7.497 0 0 0 3.961 6.612 7.496 7.496 0 0 0 7.699-.372l60.61-40.398a7.5 7.5 0 0 0 .001-12.481l-60.61-40.41a7.5 7.5 0 0 0-11.66 6.24v16.86c-76.713 2.445-146.612 42.157-188.096 107.28a7.5 7.5 0 1 0 12.651 8.058C113.12 76.805 181.511 39.25 256.001 39.241a7.5 7.5 0 0 0 7.499-7.5V21.515l39.588 26.395L263.5 74.298V64.071a7.5 7.5 0 0 0-7.5-7.5c-107.456 0-195.335 85.424-199.291 191.93H39.367c.921-27.402 6.9-53.93 17.809-78.964a7.5 7.5 0 1 0-13.751-5.992c-12.729 29.213-19.184 60.319-19.184 92.456a7.5 7.5 0 0 0 7.5 7.5h32.33a7.5 7.5 0 0 0 7.5-7.5c-.001-99.181 78.7-180.328 176.929-184.28zM480.26 248.501h-32.33a7.5 7.5 0 0 0-7.5 7.5c0 11.775-1.112 23.543-3.306 34.977a7.5 7.5 0 0 0 5.953 8.778 7.5 7.5 0 0 0 8.779-5.952 200.643 200.643 0 0 0 3.435-30.303h17.342c-1.859 55.086-24.191 106.599-63.359 145.767-40.939 40.939-95.373 63.488-153.274 63.492a7.5 7.5 0 0 0-7.5 7.5v10.226l-39.588-26.395 39.588-26.388v10.227a7.5 7.5 0 0 0 7.5 7.5c40.899 0 80.206-12.292 113.672-35.546 32.695-22.719 57.624-54.247 72.091-91.179a7.5 7.5 0 0 0-13.967-5.471c-13.379 34.153-36.438 63.314-66.684 84.331-28.89 20.075-62.495 31.313-97.613 32.715v-16.59a7.497 7.497 0 0 0-3.961-6.612 7.496 7.496 0 0 0-7.699.372l-60.61 40.398a7.5 7.5 0 0 0-.001 12.481l60.61 40.41a7.495 7.495 0 0 0 7.699.372 7.5 7.5 0 0 0 3.961-6.612V487.64c59.097-1.869 114.379-25.767 156.381-67.768 43.772-43.772 67.879-101.971 67.879-163.873a7.496 7.496 0 0 0-7.498-7.498z" fill="#000000" opacity="1" data-original="#000000" class=""></path><path d="M257.02 398.861c28.771-.266 55.779-11.671 76.048-32.115 20.283-20.457 31.453-47.589 31.453-76.396 0-39.553-15.727-74.192-25.105-91.327-2.503-4.562-7.275-7.259-12.485-7.034-5.193.225-9.722 3.317-11.819 8.07l-.33.746a3925.756 3925.756 0 0 1-10.897-17.187 7.501 7.501 0 0 0-12.687 8.004 3385.92 3385.92 0 0 0 18.501 29.043 7.499 7.499 0 0 0 13.162-1.034l4.785-10.826c8.763 16.602 21.875 47.191 21.875 81.545 0 24.824-9.626 48.205-27.105 65.835-.24.242-.492.466-.734.705 4.351-9.399 6.65-19.708 6.65-30.359 0-22.602-7.699-42.679-14.157-55.541-2.375-4.729-7.156-7.599-12.433-7.454a13.549 13.549 0 0 0-6.999 2.121c-10.623-16.698-21.253-33.889-27.194-43.551-2.487-4.044-6.804-6.458-11.549-6.458s-9.062 2.414-11.549 6.458c-5.949 9.674-16.584 26.873-27.194 43.551a13.55 13.55 0 0 0-7-2.121c-5.292-.107-10.056 2.724-12.43 7.45-5.709 11.368-12.769 29.192-13.979 49.548-.75 12.618 1.736 25.12 6.994 36.342-.435-.432-.87-.865-1.299-1.307-18.172-18.741-27.995-44.506-26.949-70.69 1.283-32.236 13.605-60.611 21.763-76.068l4.783 10.821a7.5 7.5 0 0 0 6.274 4.446 7.529 7.529 0 0 0 6.89-3.414c20.621-31.992 43.594-69.209 53.696-85.662a6166.132 6166.132 0 0 0 16.62 26.907 7.501 7.501 0 0 0 12.742-7.916 6219.343 6219.343 0 0 1-17.807-28.842c-2.482-4.05-6.802-6.468-11.554-6.468s-9.072 2.418-11.553 6.466c-8.244 13.439-27.961 45.442-47.229 75.653l-.327-.74c-2.1-4.758-6.633-7.853-11.829-8.075-5.205-.2-9.974 2.473-12.471 7.031-8.696 15.881-23.505 48.074-24.986 85.263-1.209 30.267 10.151 60.056 31.168 81.73 20.793 21.456 48.635 33.128 78.246 32.85zm-58.198-77.436c.965-16.243 6.271-30.807 11.048-40.912l.761 1.723a7.503 7.503 0 0 0 6.274 4.446c2.748.199 5.396-1.096 6.891-3.415 11.816-18.338 24.804-39.287 32.205-51.306 7.391 12.003 20.366 32.933 32.205 51.306a7.52 7.52 0 0 0 6.891 3.415 7.501 7.501 0 0 0 6.274-4.446l.761-1.723c5.397 11.407 11.201 27.892 11.201 46.019 0 31.169-25.348 56.886-56.504 57.326-15.781.231-30.601-6.017-41.643-17.569-11.386-11.914-17.351-28.266-16.364-44.864zM331.763 136.22h4.622v4.622c0 4.143 3.358 7.5 7.5 7.5s7.5-3.357 7.5-7.5v-4.622h4.622c4.142 0 7.5-3.357 7.5-7.5s-3.358-7.5-7.5-7.5h-4.622v-4.622c0-4.143-3.358-7.5-7.5-7.5s-7.5 3.357-7.5 7.5v4.622h-4.622c-4.142 0-7.5 3.357-7.5 7.5s3.357 7.5 7.5 7.5zM392.372 218.044h4.622v4.622c0 4.143 3.358 7.5 7.5 7.5s7.5-3.357 7.5-7.5v-4.622h4.622c4.142 0 7.5-3.357 7.5-7.5s-3.358-7.5-7.5-7.5h-4.622v-4.622c0-4.143-3.358-7.5-7.5-7.5s-7.5 3.357-7.5 7.5v4.622h-4.622c-4.142 0-7.5 3.357-7.5 7.5s3.358 7.5 7.5 7.5zM106.496 294.968h-4.622v-4.622c0-4.143-3.358-7.5-7.5-7.5s-7.5 3.357-7.5 7.5v4.622h-4.622c-4.142 0-7.5 3.357-7.5 7.5s3.358 7.5 7.5 7.5h4.622v4.622c0 4.143 3.358 7.5 7.5 7.5s7.5-3.357 7.5-7.5v-4.622h4.622c4.142 0 7.5-3.357 7.5-7.5s-3.357-7.5-7.5-7.5zM153.974 393.965h-4.622v-4.622c0-4.143-3.358-7.5-7.5-7.5s-7.5 3.357-7.5 7.5v4.622h-4.622c-4.142 0-7.5 3.357-7.5 7.5s3.358 7.5 7.5 7.5h4.622v4.621c0 4.143 3.358 7.5 7.5 7.5s7.5-3.357 7.5-7.5v-4.621h4.622c4.142 0 7.5-3.357 7.5-7.5s-3.358-7.5-7.5-7.5z" fill="#000000" opacity="1" data-original="#000000" class=""></path></g></svg>